<svg xmlns="http://www.w3.org/2000/svg" viewBox="0 0 560 560">
  <title>GoWind 风行 — 登录页品牌插画（旋涡 v2：环流动效 + 风痕 + 字标）</title>
  <style>
    .gw-ring1,.gw-ring2,.gw-orbit,.gw-orbit2{transform-box:view-box;transform-origin:280px 268px}
    .gw-ring1{animation:gw-spin 48s linear infinite}
    .gw-ring2{animation:gw-spin 70s linear infinite reverse}
    .gw-orbit{animation:gw-spin 36s linear infinite}
    .gw-orbit2{animation:gw-spin 52s linear infinite reverse}
    .gw-streak{animation:gw-drift 9s ease-in-out infinite alternate}
    .gw-s2{animation-duration:12s;animation-delay:-4s}
    .gw-s3{animation-duration:10s;animation-delay:-2s}
    .gw-s4{animation-duration:13s;animation-delay:-6s}
    @keyframes gw-spin{to{transform:rotate(360deg)}}
    @keyframes gw-drift{from{transform:translateX(-16px)}to{transform:translateX(16px)}}
    @media (prefers-reduced-motion:reduce){.gw-ring1,.gw-ring2,.gw-orbit,.gw-orbit2,.gw-streak{animation:none}}
  </style>
  <defs>
    <linearGradient id="gw-lg" gradientUnits="userSpaceOnUse" x1="0" y1="38" x2="0" y2="474">
      <stop offset="0" stop-color="#70B3FF"/>
      <stop offset=".5" stop-color="#0D74F2"/>
      <stop offset="1" stop-color="#005AC2"/>
    </linearGradient>
    <radialGradient id="gw-glow" cx=".5" cy=".5" r=".5">
      <stop offset="0" stop-color="#0D74F2" stop-opacity=".13"/>
      <stop offset="1" stop-color="#0D74F2" stop-opacity="0"/>
    </radialGradient>
  </defs>
  <!-- 柔光 -->
  <circle cx="280" cy="268" r="252" fill="url(#gw-glow)"/>
  <!-- 双层虚线环流（缓慢对旋） -->
  <circle class="gw-ring2" cx="280" cy="268" r="246" fill="none" stroke="#0D74F2" stroke-opacity=".07" stroke-width="1.5" stroke-dasharray="2 16" stroke-linecap="round"/>
  <circle class="gw-ring1" cx="280" cy="268" r="212" fill="none" stroke="#0D74F2" stroke-opacity=".14" stroke-width="1.5" stroke-dasharray="3 13" stroke-linecap="round"/>
  <!-- 轨道光点 -->
  <g class="gw-orbit">
    <circle cx="280" cy="113" r="4.5" fill="#3B82F6" opacity=".55"/>
    <circle cx="280" cy="423" r="3" fill="#70B3FF" opacity=".45"/>
  </g>
  <g class="gw-orbit2">
    <circle cx="435" cy="268" r="3.5" fill="#0D74F2" opacity=".4"/>
  </g>
  <!-- 漂移风痕 -->
  <g class="gw-streak" fill="none" stroke="#0D74F2" stroke-opacity=".12" stroke-width="10" stroke-linecap="round">
    <path d="M52 190 H140 A20 20 0 0 0 120 156"/>
  </g>
  <g class="gw-streak gw-s2" fill="none" stroke="#0D74F2" stroke-opacity=".10" stroke-width="10" stroke-linecap="round">
    <path d="M400 126 H494 A22 22 0 0 0 474 88"/>
  </g>
  <g class="gw-streak gw-s3" fill="none" stroke="#0D74F2" stroke-opacity=".12" stroke-width="10" stroke-linecap="round">
    <path d="M368 440 H480 A24 24 0 0 0 460 402"/>
  </g>
  <g class="gw-streak gw-s4" fill="none" stroke="#0D74F2" stroke-opacity=".09" stroke-width="10" stroke-linecap="round">
    <path d="M84 465 H161 A18 18 0 0 0 143 435"/>
  </g>
  <!-- 旋涡主标 -->
  <g transform="translate(172,160) scale(0.42)" fill="none" stroke="url(#gw-lg)" stroke-linecap="round">
    <g>
      <animateTransform attributeName="transform" type="rotate" from="0 256 256" to="360 256 256" dur="24s" repeatCount="indefinite"/>
      <path d="M241 431 A176 176 0 1 1 408 344" stroke-width="84"/>
      <path d="M264 199 A58 58 0 1 1 204 282" stroke-width="54"/>
    </g>
  </g>
  <!-- GOWIND 几何字标签名 -->
  <g transform="translate(185,464) scale(0.30)" fill="none" stroke="#0D74F2" stroke-opacity=".5" stroke-width="20" stroke-linecap="round" stroke-linejoin="round">
    <path d="M70 22 A40 40 0 1 0 82 50 L56 50"/>
    <g transform="translate(126,0)"><circle cx="42" cy="50" r="40"/></g>
    <path transform="translate(254,0)" d="M10 0 L30 100 L48 30 L66 100 L86 0"/>
    <path transform="translate(384,0)" d="M10 0 L10 100"/>
    <path transform="translate(438,0)" d="M10 100 L10 0 L74 100 L74 0"/>
    <path transform="translate(546,0)" d="M10 0 L10 100 M10 0 L24 0 A50 50 0 0 1 24 100 L10 100"/>
  </g>
</svg>
